<svg id="Capa_1" enable-background="new 0 0 512 512" viewBox="0 0 512 512"
    xmlns="http://www.w3.org/2000/svg">
    <g id="XMLID_1136_">
        <g id="XMLID_1138_">
            <g id="XMLID_121_">
                <path id="XMLID_122_"
                    d="m476.878 309.266-32.461-105.689c-.387-53.632-21.291-104.147-58.962-142.396-37.983-38.564-88.681-60.284-142.756-61.157-38.466-.583-76.053 9.368-108.742 28.887-4.741 2.831-6.29 8.971-3.459 13.713 2.83 4.74 8.971 6.29 13.713 3.459 29.494-17.609 63.449-26.622 98.166-26.061 100.381 1.62 182.047 84.645 182.047 185.073 0 .995.148 1.984.44 2.936l32.871 107.028h-44.855c-5.522 0-10 4.478-10 10v55.217c0 26.313-21.407 47.721-47.721 47.721h-76.375c-23.775 0-46.129-9.259-62.94-26.071-3.906-3.904-10.236-3.904-14.143 0-3.905 3.905-3.905 10.237 0 14.143 19.897 19.897 46.13 31.153 74.149 31.888l-14.691 51.287c-1.521 5.31 1.55 10.847 6.859 12.367.921.264 1.847.39 2.759.39 4.349 0 8.352-2.86 9.608-7.249l16.257-56.754h58.516c37.341 0 67.721-30.379 67.721-67.721v-45.217h34.938c6.393 0 12.237-2.948 16.036-8.09 3.8-5.141 4.902-11.594 3.025-17.704z" />
                <path id="XMLID_214_"
                    d="m54.253 201.871c.586-34.546 10.641-68.018 29.076-96.799 2.979-4.65 1.623-10.835-3.027-13.814s-10.835-1.622-13.814 3.027c-20.437 31.905-31.582 68.99-32.231 107.246-.659 38.792 9.423 82.082 27.66 118.771 17.535 35.274 22.222 75.311 13.197 112.735l-16.063 66.615c-1.294 5.368 2.009 10.771 7.378 12.065.787.189 1.576.28 2.352.28 4.514 0 8.609-3.077 9.714-7.658l16.063-66.615c10.124-41.985 4.893-86.849-14.73-126.325-16.861-33.913-26.181-73.835-25.575-109.528z" />
                <path id="XMLID_215_"
                    d="m110.435 57.792c-3.906-3.904-10.236-3.904-14.143 0-3.905 3.905-3.905 10.237 0 14.143l.01.01c1.951 1.951 4.508 2.927 7.064 2.927 2.56 0 5.119-.979 7.073-2.932 3.906-3.906 3.901-10.243-.004-14.148z" />
                <path id="XMLID_218_"
                    d="m204.965 271.013 19.875-44.568h101.324c26.75 0 48.513-21.763 48.513-48.512 0-19.85-11.907-37.306-29.735-44.744-3.067-23.816-23.475-42.279-48.113-42.279-3.755 0-7.445.423-11.04 1.263-9.587-13.589-25.385-21.995-42.317-21.995-17.959 0-34.389 9.343-43.73 24.102-5.62-2.221-11.631-3.369-17.794-3.369-22.775 0-42.424 16.188-47.326 37.895-18.164 8.072-30.374 26.413-30.374 46.639 0 28.123 22.879 51.002 51.001 51.002h2.864v40.495c0 5.522 4.478 10 10 10h27.721c3.946-.003 7.524-2.325 9.131-5.929zm-15.623-14.074h-11.23v-40.495c0-5.522-4.478-10-10-10h-12.864c-17.094 0-31.001-13.907-31.001-31.002 0-13.629 9.12-25.851 22.178-29.72 3.948-1.17 6.776-4.641 7.124-8.744 1.236-14.618 13.711-26.069 28.398-26.069 3.667 0 7.24.695 10.576 2.031-.515 2.945-.778 5.94-.778 8.964 0 14.285 5.695 27.582 16.037 37.442 1.937 1.847 4.419 2.763 6.898 2.763 2.64 0 5.274-1.039 7.239-3.1 3.812-3.997 3.66-10.327-.337-14.138-6.344-6.049-9.838-14.206-9.838-22.968 0-3.646.618-7.211 1.821-10.605 4.481-12.634 16.5-21.122 29.905-21.122 12.244 0 23.522 7.171 28.733 18.268 2.31 4.92 8.125 7.098 13.101 4.894 3.64-1.611 7.517-2.429 11.523-2.429 15.722 0 28.512 12.79 28.512 28.512 0 .146-.007.289-.012.433l-.012.404c-.126 4.708 3.052 8.866 7.629 9.981 12.795 3.118 21.731 14.506 21.731 27.693 0 15.722-12.791 28.512-28.513 28.512h-107.812c-3.947 0-7.525 2.322-9.133 5.927z" />
            </g>
        </g>
    </g>
</svg>