<svg enable-background="new 0 0 479.999 479.999" viewBox="0 0 479.999 479.999" xmlns="http://www.w3.org/2000/svg">
    <g>
        <path
            d="m69.66 397.999h390.839c4.418 0 8-3.582 8-8v-127.286c0-9.515-5.236-18.167-13.665-22.581l-76.824-40.228c-4.88-2.556-10.371-3.906-15.88-3.906h-16.631v-26.89c39.23-4.625 66.232-44.239 53.582-83.751-8.917-27.849-21.018-53.2-34.074-71.384-13.086-18.225-40.556-18.937-53.988-.289-2.367 3.287-4.703 6.809-6.995 10.533-2.225-3.616-4.489-7.047-6.785-10.245-13.035-18.151-40.515-18.992-53.989-.286-16.722 23.215-27.88 51.894-34.295 71.865-7.427 23.115-1.412 48.102 15.696 65.21 3.125 3.124 8.189 3.124 11.314 0 3.124-3.124 3.124-8.189 0-11.313-12.849-12.848-17.361-31.625-11.778-49.003 8.571-26.678 19.951-50.617 32.045-67.407 6.849-9.508 21.088-9.37 28.01.269 12.106 16.862 23.412 40.632 31.832 66.931 9.251 28.896-9.58 57.667-37.575 62.602v-31.84c0-4.418-3.582-8-8-8s-8 3.582-8 8v75h-51.577c-4.722 0-9.2-1.798-12.61-5.063l-35.961-34.431c-6.402-6.13-14.811-9.506-23.674-9.506h-101.689c-14.055 0-25.488 11.434-25.488 25.489v282.021c0 14.055 11.434 25.489 25.488 25.489h406.023c14.055 0 25.488-11.434 25.488-25.489v-20.479c0-4.418-3.582-8-8-8s-8 3.582-8 8v20.479c0 5.232-4.257 9.489-9.488 9.489h-406.023c-5.231 0-9.488-4.257-9.488-9.489v-214.511h112.2c4.721 0 9.199 1.798 12.609 5.063l35.961 34.431c6.402 6.13 14.811 9.506 23.674 9.506h149.612c2.935 0 5.859.72 8.46 2.082l40.48 21.203c3.913 2.052 8.749.537 10.799-3.375 2.05-3.914.539-8.749-3.375-10.799l-40.48-21.204c-4.882-2.557-10.374-3.908-15.884-3.908h-149.612c-4.721 0-9.199-1.798-12.609-5.063l-35.961-34.431c-6.402-6.13-14.811-9.506-23.674-9.506h-112.2v-51.511c0-5.232 4.257-9.489 9.488-9.489h101.689c4.721 0 9.199 1.798 12.609 5.063l35.961 34.431c6.402 6.13 14.811 9.506 23.675 9.506h151.208c2.935 0 5.859.719 8.458 2.08l76.824 40.229c3.138 1.643 5.087 4.864 5.087 8.406v119.286h-382.839c-4.418 0-8 3.582-8 8s3.582 8 8 8zm208.839-228.98c38.86-5.102 65.38-44.41 52.813-83.661-5.157-16.105-11.383-31.364-18.238-44.895 3.531-6.394 7.196-12.247 10.926-17.426 6.853-9.513 21.091-9.365 28.01.269 12.106 16.862 23.412 40.632 31.832 66.931 10.17 31.764-13.638 63.338-45.995 63.338-4.631 0-8.314 3.244-8.336 8.172-.018 4.053-.013-8.074-.013 34.252h-51v-26.98z" />
        <path
            d="m74.026 289.105c3.124-3.125 3.124-8.19-.001-11.313-3.126-3.125-8.191-3.124-11.313.001l-4.918 4.919c-3.124 3.125-3.124 8.19.001 11.313 3.124 3.123 8.19 3.124 11.313-.001z" />
        <path
            d="m158.782 319.165 4.919-4.918c3.125-3.124 3.125-8.189.001-11.314-3.123-3.123-8.188-3.124-11.313 0l-4.919 4.918c-5.056 5.055-1.407 13.657 5.656 13.657 2.046-.001 4.094-.782 5.656-2.343z" />
        <path
            d="m104.131 348.514 4.918-4.918c3.124-3.125 3.124-8.19-.001-11.314-3.123-3.124-8.188-3.124-11.313 0l-4.918 4.918c-5.054 5.054-1.405 13.657 5.657 13.657 2.048 0 4.095-.781 5.657-2.343z" />
        <path
            d="m214.527 356.328 4.919-4.918c3.125-3.124 3.125-8.189.001-11.314-3.124-3.123-8.189-3.124-11.313 0l-4.919 4.918c-5.056 5.055-1.407 13.657 5.656 13.657 2.046 0 4.094-.781 5.656-2.343z" />
        <path
            d="m285.575 336.653 4.919-4.918c3.125-3.124 3.125-8.189.001-11.314-3.123-3.123-8.188-3.124-11.313 0l-4.919 4.918c-5.056 5.055-1.407 13.657 5.656 13.657 2.046 0 4.094-.781 5.656-2.343z" />
        <path
            d="m367.554 356.328 4.918-4.918c3.124-3.125 3.124-8.19-.001-11.314-3.123-3.124-8.188-3.124-11.313 0l-4.918 4.918c-5.054 5.054-1.405 13.657 5.657 13.657 2.048 0 4.095-.781 5.657-2.343z" />
    </g>
</svg>