<svg viewBox="0 0 24 24" xmlns="http://www.w3.org/2000/svg"><path d="m12.5 24c-3.584 0-6.5-2.916-6.5-6.5v-5c0-.276.224-.5.5-.5s.5.224.5.5v5c0 3.033 2.468 5.5 5.5 5.5s5.5-2.467 5.5-5.5v-1c0-.276.224-.5.5-.5s.5.224.5.5v1c0 3.584-2.916 6.5-6.5 6.5z"/><path d="m7.5 13h-2c-2.481 0-4.5-2.019-4.5-4.5v-2c0-1.378 1.121-2.5 2.5-2.5h6c1.379 0 2.5 1.122 2.5 2.5v2c0 2.481-2.019 4.5-4.5 4.5zm-4-8c-.827 0-1.5.673-1.5 1.5v2c0 1.93 1.57 3.5 3.5 3.5h2c1.93 0 3.5-1.57 3.5-3.5v-2c0-.827-.673-1.5-1.5-1.5z"/><path d="m4.5 5c-.276 0-.5-.224-.5-.5v-4c0-.276.224-.5.5-.5s.5.224.5.5v4c0 .276-.224.5-.5.5z"/><path d="m8.5 5c-.276 0-.5-.224-.5-.5v-4c0-.276.224-.5.5-.5s.5.224.5.5v4c0 .276-.224.5-.5.5z"/><path d="m8.5 8h-4c-.276 0-.5-.224-.5-.5s.224-.5.5-.5h4c.276 0 .5.224.5.5s-.224.5-.5.5z"/><path d="m17.5 14c-.06 0-.119-.01-.177-.032-.224-.084-.355-.315-.316-.55l.903-5.418h-2.41c-.188 0-.358-.104-.444-.271s-.071-.367.037-.52l5-7c.139-.192.393-.261.606-.168.216.094.337.326.291.557l-.88 4.402h2.39c.182 0 .35.099.438.258s.083.353-.014.507l-5 8c-.094.15-.256.235-.424.235zm-1.028-7h2.028c.147 0 .286.064.382.177.095.112.136.26.111.405l-.588 3.525 3.193-5.107h-2.098c-.149 0-.292-.067-.387-.183s-.133-.268-.103-.415l.543-2.716z"/></svg>